<?xml version="1.0" standalone="no"?><!DOCTYPE svg PUBLIC "-//W3C//DTD SVG 1.1//EN" "http://www.w3.org/Graphics/SVG/1.1/DTD/svg11.dtd"><svg t="1777472848897" class="icon" viewBox="0 0 1024 1024" version="1.1" xmlns="http://www.w3.org/2000/svg" p-id="1726" xmlns:xlink="http://www.w3.org/1999/xlink" width="200" height="200"><path d="M478.3 927.5V175.2L259 394.5c-10.7 10.7-28.1 10.7-38.7 0l-6.5-6.5c-10.7-10.7-10.7-28.1 0-38.7L481.6 81.4c4.5-9.2 13.4-16 23.9-17.6 7.1-1.5 14.7-0.1 21 4 4 2.4 7.5 5.6 10.1 9.4l0.5 0.5c2.6 2.6 4.6 5.6 5.9 8.8l266.7 266.7c10.7 10.7 10.7 28.1 0 38.7l-6.5 6.5c-10.7 10.7-28.1 10.7-38.7 0l-222.3-222v751.1c0 17.6-14.4 32-32 32-17.5 0-31.9-14.4-31.9-32z" fill="#ffffff" p-id="1727"></path></svg>